<svg xmlns="http://www.w3.org/2000/svg" xmlns:xlink="http://www.w3.org/1999/xlink" width="500" zoomAndPan="magnify" viewBox="0 0 375 374.999991" height="500" preserveAspectRatio="xMidYMid meet" version="1.0"><defs><clipPath id="284ab44f39"><path d="M 19.535156 63 L 355.535156 63 L 355.535156 312 L 19.535156 312 Z M 19.535156 63 " clip-rule="nonzero"/></clipPath><clipPath id="c7ac965143"><path d="M 60.730469 64.726562 L 85.609375 105.460938 L 85.980469 105.828125 C 120.078125 127.207031 152.882812 148.40625 186.519531 170.523438 L 187.535156 169.324219 L 134.085938 111.726562 L 133.992188 111.632812 L 90.21875 77.351562 L 90.035156 77.257812 L 61.835938 63.527344 Z M 32.898438 234.847656 L 44.417969 235.679688 L 30.871094 218.078125 L 29.304688 218.722656 L 30.6875 230.332031 C 30.6875 230.609375 30.59375 230.980469 30.226562 231.070312 L 19.535156 236.140625 L 19.996094 237.613281 L 32.527344 234.941406 C 32.621094 234.941406 32.714844 234.941406 32.804688 234.941406 Z M 47.734375 248.027344 L 31.792969 252.359375 L 31.148438 252.820312 L 25.433594 261.390625 L 26.445312 262.773438 L 38.609375 259.179688 L 39.070312 258.902344 L 48.65625 249.503906 L 47.828125 248.121094 Z M 72.984375 236.601562 L 51.050781 232.820312 L 50.316406 234.296875 L 59.160156 241.851562 C 59.4375 242.039062 59.53125 242.40625 59.4375 242.773438 L 55.015625 253.742188 L 56.398438 254.480469 L 63.863281 243.972656 C 63.863281 243.878906 63.953125 243.878906 64.046875 243.789062 L 73.078125 236.601562 Z M 93.167969 222.132812 L 43.496094 216.601562 L 43.125 218.078125 L 75.566406 229.042969 L 76.210938 229.042969 L 93.257812 223.699219 L 93.074219 222.132812 Z M 100.449219 218.351562 L 115.929688 220.289062 C 121 214.941406 124.777344 211.257812 130.214844 206.28125 L 129.476562 204.804688 L 112.519531 207.292969 L 112.152344 207.386719 L 103.488281 212.085938 L 103.027344 212.546875 L 100.449219 218.261719 Z M 75.75 250.332031 L 95.933594 244.339844 L 96.394531 244.066406 L 112.242188 228.492188 L 111.414062 227.109375 L 84.964844 234.296875 L 84.320312 234.757812 L 74.738281 249.042969 L 75.75 250.425781 Z M 46.90625 271.804688 L 55.382812 272.910156 C 57.871094 270.238281 59.808594 268.394531 62.480469 265.90625 L 61.742188 264.433594 L 53.449219 265.628906 L 53.078125 265.722656 L 48.75 268.027344 L 48.289062 268.488281 L 46.8125 271.710938 Z M 64.136719 282.035156 L 38.058594 279.085938 L 37.691406 280.558594 L 54.738281 286.367188 L 55.382812 286.367188 L 64.230469 283.601562 L 64.046875 282.035156 Z M 64.875 273.277344 L 83.398438 268.027344 L 83.953125 267.65625 L 90.035156 259.917969 L 89.019531 258.71875 L 64.324219 271.898438 Z M 104.871094 282.035156 L 102.476562 283.324219 C 102.382812 283.324219 102.289062 283.417969 102.199219 283.417969 L 82.292969 285.445312 L 81.648438 285.8125 L 59.160156 310.140625 L 60.082031 311.523438 L 97.960938 297.054688 L 98.328125 296.871094 L 124.777344 273.554688 L 123.855469 272.265625 L 105.792969 281.664062 C 105.609375 281.757812 105.425781 281.757812 105.238281 281.757812 C 105.148438 281.941406 105.054688 282.125 104.871094 282.21875 Z M 105.054688 280.191406 L 135.46875 260.929688 L 134.820312 259.457031 L 110.675781 265.90625 L 110.492188 265.90625 L 93.90625 266.828125 L 82.660156 282.125 L 104.042969 280.652344 L 104.226562 280.558594 C 104.410156 280.46875 104.59375 280.46875 104.777344 280.558594 C 104.871094 280.375 104.964844 280.285156 105.054688 280.191406 Z M 188.179688 259.269531 L 139.707031 271.4375 L 139.890625 272.910156 L 174.082031 271.898438 L 174.726562 271.710938 L 188.824219 260.746094 L 188.089844 259.269531 Z M 184.492188 221.210938 L 158.597656 218.167969 L 158.414062 218.167969 L 142.101562 212.453125 L 101.277344 250.886719 L 102.015625 252.359375 L 140.257812 243.421875 L 140.445312 243.328125 L 184.769531 222.867188 Z M 161.453125 211.074219 L 185.414062 214.851562 L 185.96875 214.851562 L 199.332031 210.519531 L 199.238281 208.859375 L 149.660156 200.660156 L 149.015625 202.132812 L 161.085938 210.796875 L 161.546875 210.980469 Z M 194.539062 248.121094 L 195.550781 223.976562 L 149.476562 246 L 149.660156 247.660156 L 172.328125 253.097656 L 172.789062 253.097656 Z M 216.195312 233.558594 L 222.1875 212.179688 L 220.804688 211.347656 L 219.328125 212.824219 C 219.238281 212.914062 219.144531 212.914062 219.144531 213.007812 C 219.144531 213.101562 219.050781 213.191406 218.960938 213.191406 L 201.542969 230.792969 L 201.265625 231.441406 L 200.066406 248.671875 L 201.636719 249.316406 L 216.101562 234.019531 L 216.378906 233.558594 Z M 249.648438 203.421875 L 232.324219 216.695312 L 231.953125 217.15625 L 221.632812 241.945312 C 221.539062 242.039062 221.539062 242.128906 221.449219 242.222656 L 190.023438 267.84375 L 190.851562 269.222656 L 224.488281 255.308594 L 224.859375 255.03125 L 253.058594 224.34375 Z M 252.78125 181.675781 L 247.710938 160.203125 L 246.054688 160.109375 L 227.53125 210.519531 L 228.820312 211.535156 L 248.265625 197.894531 L 248.632812 197.339844 L 252.78125 182.136719 L 252.78125 181.582031 Z M 294.898438 156.238281 L 355.8125 133.84375 L 355.441406 132.371094 L 290.105469 144.996094 Z M 300.425781 160.203125 L 268.449219 181.398438 L 267.433594 214.757812 L 269 215.128906 L 280.890625 185.820312 C 280.890625 185.730469 280.980469 185.636719 280.980469 185.636719 L 301.441406 161.492188 L 300.425781 160.292969 Z M 265.960938 154.488281 L 262.179688 160.664062 C 262.089844 160.847656 261.996094 160.9375 261.8125 160.9375 L 258.125 162.320312 C 257.851562 162.414062 257.480469 162.414062 257.296875 162.136719 C 257.019531 161.859375 257.019531 161.398438 257.296875 161.03125 C 257.664062 160.664062 258.035156 160.109375 258.3125 159.554688 C 258.496094 159.003906 258.679688 158.449219 258.679688 157.804688 C 258.679688 157.160156 258.585938 156.605469 258.3125 156.054688 C 258.125 155.5 257.757812 155.039062 257.296875 154.578125 C 256.929688 154.210938 256.375 153.84375 255.824219 153.566406 C 255.269531 153.382812 254.714844 153.199219 254.070312 153.199219 C 253.425781 153.199219 252.875 153.289062 252.320312 153.566406 C 251.769531 153.75 251.308594 154.117188 250.847656 154.578125 C 250.476562 154.949219 250.109375 155.5 249.832031 156.054688 C 249.648438 156.605469 249.464844 157.160156 249.464844 157.804688 C 249.464844 158.449219 249.554688 159.003906 249.832031 159.554688 C 250.015625 160.109375 250.386719 160.570312 250.847656 161.03125 C 251.214844 161.398438 251.675781 161.769531 252.136719 161.953125 C 252.597656 162.136719 253.148438 162.320312 253.703125 162.320312 C 253.980469 162.320312 254.253906 162.503906 254.347656 162.78125 C 254.53125 163.152344 254.253906 163.609375 253.886719 163.796875 L 253.148438 164.070312 L 257.851562 179.921875 C 265.589844 172.828125 272.871094 165.640625 280.429688 158.265625 L 283.191406 155.5 L 282.546875 153.933594 L 265.867188 154.304688 Z M 235.546875 137.621094 L 259.785156 144.441406 L 260.246094 144.441406 L 284.113281 140.386719 L 284.207031 138.730469 L 254.808594 131.539062 L 254.347656 131.539062 L 235.734375 135.964844 L 235.734375 137.621094 Z M 210.757812 168.957031 L 245.59375 147.574219 L 228.636719 142.414062 L 216.65625 152.921875 L 216.378906 153.289062 L 209.46875 167.757812 L 210.667969 168.863281 Z M 213.800781 178.171875 C 213.523438 178.355469 213.15625 178.355469 212.878906 178.171875 L 186.796875 158.359375 L 185.691406 159.464844 L 207.53125 185.730469 C 207.53125 185.820312 207.625 185.820312 207.625 185.914062 L 218.5 210.980469 L 241.628906 160.847656 L 240.339844 159.742188 L 213.707031 178.078125 Z M 129.109375 98.179688 C 153.621094 119.929688 177.214844 140.757812 204.125 160.570312 L 205.320312 159.464844 L 195.183594 144.257812 L 194.90625 143.980469 L 111.136719 80.394531 L 110.214844 81.5 C 116.484375 87.027344 122.839844 92.648438 129.109375 98.179688 Z M 203.476562 202.226562 L 127.171875 166.652344 L 126.066406 167.851562 L 141.734375 192.824219 L 203.015625 203.609375 L 203.476562 202.132812 Z M 128.1875 138.082031 L 96.855469 123.613281 L 95.839844 124.90625 L 119.246094 156.605469 L 119.707031 156.976562 L 202.371094 194.117188 L 203.109375 192.824219 L 128.371094 138.269531 L 128.1875 138.175781 Z M 128.1875 138.082031 " clip-rule="evenodd"/></clipPath><linearGradient x1="38.578303" gradientTransform="matrix(9.215579, 0, 0, 9.215793, 19.535036, 63.527768)" y1="4.17441" x2="-1.274776" gradientUnits="userSpaceOnUse" y2="24.397879" id="5d7d4def46"><stop stop-opacity="1" stop-color="rgb(100%, 87.098694%, 34.899902%)" offset="0"/><stop stop-opacity="1" stop-color="rgb(100%, 87.098694%, 34.899902%)" offset="0.125"/><stop stop-opacity="1" stop-color="rgb(100%, 87.098694%, 34.899902%)" offset="0.1875"/><stop stop-opacity="1" stop-color="rgb(100%, 87.098694%, 34.899902%)" offset="0.21875"/><stop stop-opacity="1" stop-color="rgb(100%, 87.098694%, 34.899902%)" offset="0.234375"/><stop stop-opacity="1" stop-color="rgb(100%, 86.997986%, 34.864807%)" offset="0.242188"/><stop stop-opacity="1" stop-color="rgb(100%, 86.405945%, 34.666443%)" offset="0.246094"/><stop stop-opacity="1" stop-color="rgb(100%, 85.913086%, 34.501648%)" offset="0.25"/><stop stop-opacity="1" stop-color="rgb(100%, 85.420227%, 34.336853%)" offset="0.253906"/><stop stop-opacity="1" stop-color="rgb(100%, 84.928894%, 34.172058%)" offset="0.257812"/><stop stop-opacity="1" stop-color="rgb(100%, 84.436035%, 34.007263%)" offset="0.261719"/><stop stop-opacity="1" stop-color="rgb(100%, 83.944702%, 33.842468%)" offset="0.265625"/><stop stop-opacity="1" stop-color="rgb(100%, 83.451843%, 33.677673%)" offset="0.269531"/><stop stop-opacity="1" stop-color="rgb(100%, 82.96051%, 33.512878%)" offset="0.273438"/><stop stop-opacity="1" stop-color="rgb(100%, 82.467651%, 33.348083%)" offset="0.277344"/><stop stop-opacity="1" stop-color="rgb(100%, 81.976318%, 33.183289%)" offset="0.28125"/><stop stop-opacity="1" stop-color="rgb(100%, 81.483459%, 33.018494%)" offset="0.285156"/><stop stop-opacity="1" stop-color="rgb(100%, 80.992126%, 32.853699%)" offset="0.289062"/><stop stop-opacity="1" stop-color="rgb(100%, 80.499268%, 32.688904%)" offset="0.292969"/><stop stop-opacity="1" stop-color="rgb(100%, 80.007935%, 32.524109%)" offset="0.296875"/><stop stop-opacity="1" stop-color="rgb(100%, 79.515076%, 32.357788%)" offset="0.300781"/><stop stop-opacity="1" stop-color="rgb(100%, 79.023743%, 32.192993%)" offset="0.304688"/><stop stop-opacity="1" stop-color="rgb(100%, 78.530884%, 32.028198%)" offset="0.308594"/><stop stop-opacity="1" stop-color="rgb(100%, 78.039551%, 31.863403%)" offset="0.3125"/><stop stop-opacity="1" stop-color="rgb(100%, 77.546692%, 31.698608%)" offset="0.316406"/><stop stop-opacity="1" stop-color="rgb(100%, 77.055359%, 31.533813%)" offset="0.320313"/><stop stop-opacity="1" stop-color="rgb(100%, 76.5625%, 31.369019%)" offset="0.324219"/><stop stop-opacity="1" stop-color="rgb(100%, 76.069641%, 31.204224%)" offset="0.328125"/><stop stop-opacity="1" stop-color="rgb(100%, 75.576782%, 31.039429%)" offset="0.332031"/><stop stop-opacity="1" stop-color="rgb(100%, 75.085449%, 30.874634%)" offset="0.335938"/><stop stop-opacity="1" stop-color="rgb(100%, 74.59259%, 30.709839%)" offset="0.339844"/><stop stop-opacity="1" stop-color="rgb(100%, 74.101257%, 30.545044%)" offset="0.34375"/><stop stop-opacity="1" stop-color="rgb(100%, 73.608398%, 30.380249%)" offset="0.347656"/><stop stop-opacity="1" stop-color="rgb(100%, 73.117065%, 30.215454%)" offset="0.351563"/><stop stop-opacity="1" stop-color="rgb(100%, 72.624207%, 30.049133%)" offset="0.355469"/><stop stop-opacity="1" stop-color="rgb(100%, 72.132874%, 29.884338%)" offset="0.359375"/><stop stop-opacity="1" stop-color="rgb(100%, 71.640015%, 29.719543%)" offset="0.363281"/><stop stop-opacity="1" stop-color="rgb(100%, 71.148682%, 29.554749%)" offset="0.367188"/><stop stop-opacity="1" stop-color="rgb(100%, 70.655823%, 29.389954%)" offset="0.371094"/><stop stop-opacity="1" stop-color="rgb(100%, 70.16449%, 29.225159%)" offset="0.375"/><stop stop-opacity="1" stop-color="rgb(100%, 69.671631%, 29.060364%)" offset="0.378906"/><stop stop-opacity="1" stop-color="rgb(100%, 69.180298%, 28.895569%)" offset="0.382812"/><stop stop-opacity="1" stop-color="rgb(100%, 68.687439%, 28.730774%)" offset="0.386719"/><stop stop-opacity="1" stop-color="rgb(100%, 68.196106%, 28.565979%)" offset="0.390625"/><stop stop-opacity="1" stop-color="rgb(100%, 67.703247%, 28.401184%)" offset="0.394531"/><stop stop-opacity="1" stop-color="rgb(100%, 67.211914%, 28.236389%)" offset="0.398438"/><stop stop-opacity="1" stop-color="rgb(100%, 66.719055%, 28.071594%)" offset="0.402344"/><stop stop-opacity="1" stop-color="rgb(100%, 66.227722%, 27.906799%)" offset="0.40625"/><stop stop-opacity="1" stop-color="rgb(100%, 65.734863%, 27.742004%)" offset="0.410156"/><stop stop-opacity="1" stop-color="rgb(100%, 65.242004%, 27.577209%)" offset="0.414062"/><stop stop-opacity="1" stop-color="rgb(100%, 64.749146%, 27.410889%)" offset="0.417969"/><stop stop-opacity="1" stop-color="rgb(100%, 64.257812%, 27.246094%)" offset="0.421875"/><stop stop-opacity="1" stop-color="rgb(100%, 63.764954%, 27.081299%)" offset="0.425781"/><stop stop-opacity="1" stop-color="rgb(100%, 63.273621%, 26.916504%)" offset="0.429688"/><stop stop-opacity="1" stop-color="rgb(100%, 62.780762%, 26.751709%)" offset="0.433594"/><stop stop-opacity="1" stop-color="rgb(100%, 62.289429%, 26.586914%)" offset="0.4375"/><stop stop-opacity="1" stop-color="rgb(100%, 61.79657%, 26.422119%)" offset="0.441406"/><stop stop-opacity="1" stop-color="rgb(100%, 61.305237%, 26.257324%)" offset="0.445313"/><stop stop-opacity="1" stop-color="rgb(100%, 60.812378%, 26.092529%)" offset="0.449219"/><stop stop-opacity="1" stop-color="rgb(100%, 60.321045%, 25.927734%)" offset="0.453125"/><stop stop-opacity="1" stop-color="rgb(100%, 59.828186%, 25.762939%)" offset="0.457031"/><stop stop-opacity="1" stop-color="rgb(100%, 59.336853%, 25.598145%)" offset="0.460938"/><stop stop-opacity="1" stop-color="rgb(100%, 58.843994%, 25.43335%)" offset="0.464844"/><stop stop-opacity="1" stop-color="rgb(100%, 58.352661%, 25.268555%)" offset="0.46875"/><stop stop-opacity="1" stop-color="rgb(100%, 57.859802%, 25.10376%)" offset="0.472656"/><stop stop-opacity="1" stop-color="rgb(100%, 57.368469%, 24.938965%)" offset="0.476563"/><stop stop-opacity="1" stop-color="rgb(100%, 56.87561%, 24.772644%)" offset="0.480469"/><stop stop-opacity="1" stop-color="rgb(100%, 56.384277%, 24.607849%)" offset="0.484375"/><stop stop-opacity="1" stop-color="rgb(100%, 55.891418%, 24.443054%)" offset="0.488281"/><stop stop-opacity="1" stop-color="rgb(100%, 55.39856%, 24.278259%)" offset="0.492188"/><stop stop-opacity="1" stop-color="rgb(100%, 54.905701%, 24.113464%)" offset="0.496094"/><stop stop-opacity="1" stop-color="rgb(100%, 54.414368%, 23.948669%)" offset="0.5"/><stop stop-opacity="1" stop-color="rgb(100%, 53.921509%, 23.783875%)" offset="0.503906"/><stop stop-opacity="1" stop-color="rgb(100%, 53.430176%, 23.61908%)" offset="0.507812"/><stop stop-opacity="1" stop-color="rgb(100%, 52.937317%, 23.454285%)" offset="0.511719"/><stop stop-opacity="1" stop-color="rgb(100%, 52.445984%, 23.28949%)" offset="0.515625"/><stop stop-opacity="1" stop-color="rgb(100%, 51.953125%, 23.124695%)" offset="0.519531"/><stop stop-opacity="1" stop-color="rgb(100%, 51.461792%, 22.9599%)" offset="0.523438"/><stop stop-opacity="1" stop-color="rgb(100%, 50.968933%, 22.795105%)" offset="0.527344"/><stop stop-opacity="1" stop-color="rgb(100%, 50.4776%, 22.63031%)" offset="0.53125"/><stop stop-opacity="1" stop-color="rgb(100%, 49.984741%, 22.465515%)" offset="0.535156"/><stop stop-opacity="1" stop-color="rgb(100%, 49.493408%, 22.30072%)" offset="0.539063"/><stop stop-opacity="1" stop-color="rgb(100%, 49.000549%, 22.134399%)" offset="0.542969"/><stop stop-opacity="1" stop-color="rgb(100%, 48.509216%, 21.969604%)" offset="0.546875"/><stop stop-opacity="1" stop-color="rgb(100%, 48.016357%, 21.80481%)" offset="0.550781"/><stop stop-opacity="1" stop-color="rgb(100%, 47.525024%, 21.640015%)" offset="0.554688"/><stop stop-opacity="1" stop-color="rgb(100%, 47.032166%, 21.47522%)" offset="0.558594"/><stop stop-opacity="1" stop-color="rgb(100%, 46.540833%, 21.310425%)" offset="0.5625"/><stop stop-opacity="1" stop-color="rgb(100%, 46.047974%, 21.14563%)" offset="0.566406"/><stop stop-opacity="1" stop-color="rgb(100%, 45.555115%, 20.980835%)" offset="0.570312"/><stop stop-opacity="1" stop-color="rgb(100%, 45.062256%, 20.81604%)" offset="0.574219"/><stop stop-opacity="1" stop-color="rgb(100%, 44.570923%, 20.651245%)" offset="0.578125"/><stop stop-opacity="1" stop-color="rgb(100%, 44.078064%, 20.48645%)" offset="0.582031"/><stop stop-opacity="1" stop-color="rgb(100%, 43.586731%, 20.321655%)" offset="0.585938"/><stop stop-opacity="1" stop-color="rgb(100%, 43.093872%, 20.15686%)" offset="0.589844"/><stop stop-opacity="1" stop-color="rgb(100%, 42.602539%, 19.992065%)" offset="0.59375"/><stop stop-opacity="1" stop-color="rgb(100%, 42.10968%, 19.827271%)" offset="0.597656"/><stop stop-opacity="1" stop-color="rgb(100%, 41.618347%, 19.662476%)" offset="0.601562"/><stop stop-opacity="1" stop-color="rgb(100%, 41.125488%, 19.496155%)" offset="0.605469"/><stop stop-opacity="1" stop-color="rgb(100%, 40.634155%, 19.33136%)" offset="0.609375"/><stop stop-opacity="1" stop-color="rgb(100%, 40.141296%, 19.166565%)" offset="0.613281"/><stop stop-opacity="1" stop-color="rgb(100%, 39.649963%, 19.00177%)" offset="0.617188"/><stop stop-opacity="1" stop-color="rgb(100%, 39.157104%, 18.836975%)" offset="0.621094"/><stop stop-opacity="1" stop-color="rgb(100%, 38.665771%, 18.67218%)" offset="0.625"/><stop stop-opacity="1" stop-color="rgb(100%, 38.172913%, 18.507385%)" offset="0.628906"/><stop stop-opacity="1" stop-color="rgb(100%, 37.68158%, 18.34259%)" offset="0.632812"/><stop stop-opacity="1" stop-color="rgb(100%, 37.188721%, 18.177795%)" offset="0.636719"/><stop stop-opacity="1" stop-color="rgb(100%, 36.697388%, 18.013%)" offset="0.640625"/><stop stop-opacity="1" stop-color="rgb(100%, 36.204529%, 17.848206%)" offset="0.644531"/><stop stop-opacity="1" stop-color="rgb(100%, 35.713196%, 17.683411%)" offset="0.648437"/><stop stop-opacity="1" stop-color="rgb(100%, 35.220337%, 17.518616%)" offset="0.652344"/><stop stop-opacity="1" stop-color="rgb(100%, 34.727478%, 17.353821%)" offset="0.65625"/><stop stop-opacity="1" stop-color="rgb(100%, 34.234619%, 17.1875%)" offset="0.660156"/><stop stop-opacity="1" stop-color="rgb(100%, 33.743286%, 17.022705%)" offset="0.664062"/><stop stop-opacity="1" stop-color="rgb(100%, 33.250427%, 16.85791%)" offset="0.667969"/><stop stop-opacity="1" stop-color="rgb(100%, 32.759094%, 16.693115%)" offset="0.671875"/><stop stop-opacity="1" stop-color="rgb(100%, 32.266235%, 16.52832%)" offset="0.675781"/><stop stop-opacity="1" stop-color="rgb(100%, 31.774902%, 16.363525%)" offset="0.679688"/><stop stop-opacity="1" stop-color="rgb(100%, 31.282043%, 16.19873%)" offset="0.683594"/><stop stop-opacity="1" stop-color="rgb(100%, 30.79071%, 16.033936%)" offset="0.6875"/><stop stop-opacity="1" stop-color="rgb(100%, 30.297852%, 15.869141%)" offset="0.691406"/><stop stop-opacity="1" stop-color="rgb(100%, 29.806519%, 15.704346%)" offset="0.695312"/><stop stop-opacity="1" stop-color="rgb(100%, 29.31366%, 15.539551%)" offset="0.699219"/><stop stop-opacity="1" stop-color="rgb(100%, 28.822327%, 15.374756%)" offset="0.703125"/><stop stop-opacity="1" stop-color="rgb(100%, 28.329468%, 15.209961%)" offset="0.707031"/><stop stop-opacity="1" stop-color="rgb(100%, 27.838135%, 15.045166%)" offset="0.710938"/><stop stop-opacity="1" stop-color="rgb(100%, 27.345276%, 14.880371%)" offset="0.714844"/><stop stop-opacity="1" stop-color="rgb(100%, 26.853943%, 14.715576%)" offset="0.71875"/><stop stop-opacity="1" stop-color="rgb(100%, 26.361084%, 14.549255%)" offset="0.722656"/><stop stop-opacity="1" stop-color="rgb(100%, 25.869751%, 14.38446%)" offset="0.726562"/><stop stop-opacity="1" stop-color="rgb(100%, 25.376892%, 14.219666%)" offset="0.730469"/><stop stop-opacity="1" stop-color="rgb(100%, 24.884033%, 14.054871%)" offset="0.734375"/><stop stop-opacity="1" stop-color="rgb(100%, 24.391174%, 13.890076%)" offset="0.738281"/><stop stop-opacity="1" stop-color="rgb(100%, 23.899841%, 13.725281%)" offset="0.742187"/><stop stop-opacity="1" stop-color="rgb(100%, 23.406982%, 13.560486%)" offset="0.746094"/><stop stop-opacity="1" stop-color="rgb(100%, 22.915649%, 13.395691%)" offset="0.75"/><stop stop-opacity="1" stop-color="rgb(100%, 22.422791%, 13.230896%)" offset="0.753906"/><stop stop-opacity="1" stop-color="rgb(100%, 21.931458%, 13.066101%)" offset="0.757813"/><stop stop-opacity="1" stop-color="rgb(100%, 21.438599%, 12.901306%)" offset="0.761719"/><stop stop-opacity="1" stop-color="rgb(100%, 20.947266%, 12.736511%)" offset="0.765625"/><stop stop-opacity="1" stop-color="rgb(100%, 20.454407%, 12.571716%)" offset="0.769531"/><stop stop-opacity="1" stop-color="rgb(100%, 19.963074%, 12.406921%)" offset="0.773438"/><stop stop-opacity="1" stop-color="rgb(100%, 19.470215%, 12.242126%)" offset="0.777344"/><stop stop-opacity="1" stop-color="rgb(100%, 18.978882%, 12.077332%)" offset="0.78125"/><stop stop-opacity="1" stop-color="rgb(100%, 18.486023%, 11.911011%)" offset="0.785156"/><stop stop-opacity="1" stop-color="rgb(100%, 17.99469%, 11.746216%)" offset="0.789062"/><stop stop-opacity="1" stop-color="rgb(100%, 17.501831%, 11.581421%)" offset="0.792969"/><stop stop-opacity="1" stop-color="rgb(100%, 17.010498%, 11.416626%)" offset="0.796875"/><stop stop-opacity="1" stop-color="rgb(100%, 16.517639%, 11.251831%)" offset="0.800781"/><stop stop-opacity="1" stop-color="rgb(100%, 16.026306%, 11.087036%)" offset="0.804688"/><stop stop-opacity="1" stop-color="rgb(100%, 15.533447%, 10.922241%)" offset="0.808594"/><stop stop-opacity="1" stop-color="rgb(100%, 15.040588%, 10.757446%)" offset="0.8125"/><stop stop-opacity="1" stop-color="rgb(100%, 14.547729%, 10.592651%)" offset="0.816406"/><stop stop-opacity="1" stop-color="rgb(100%, 14.056396%, 10.427856%)" offset="0.820312"/><stop stop-opacity="1" stop-color="rgb(100%, 13.563538%, 10.263062%)" offset="0.824219"/><stop stop-opacity="1" stop-color="rgb(100%, 13.072205%, 10.098267%)" offset="0.828125"/><stop stop-opacity="1" stop-color="rgb(100%, 12.579346%, 9.933472%)" offset="0.832031"/><stop stop-opacity="1" stop-color="rgb(100%, 12.088013%, 9.768677%)" offset="0.835938"/><stop stop-opacity="1" stop-color="rgb(100%, 11.595154%, 9.603882%)" offset="0.839844"/><stop stop-opacity="1" stop-color="rgb(100%, 11.103821%, 9.439087%)" offset="0.84375"/><stop stop-opacity="1" stop-color="rgb(100%, 10.610962%, 9.272766%)" offset="0.847656"/><stop stop-opacity="1" stop-color="rgb(100%, 10.119629%, 9.107971%)" offset="0.851563"/><stop stop-opacity="1" stop-color="rgb(100%, 9.62677%, 8.943176%)" offset="0.855469"/><stop stop-opacity="1" stop-color="rgb(100%, 9.135437%, 8.778381%)" offset="0.859375"/><stop stop-opacity="1" stop-color="rgb(100%, 8.866882%, 8.688354%)" offset="0.863281"/><stop stop-opacity="1" stop-color="rgb(100%, 8.599854%, 8.599854%)" offset="0.867188"/><stop stop-opacity="1" stop-color="rgb(100%, 8.599854%, 8.599854%)" offset="0.875"/><stop stop-opacity="1" stop-color="rgb(100%, 8.599854%, 8.599854%)" offset="1"/></linearGradient></defs><g clip-path="url(#284ab44f39)"><g clip-path="url(#c7ac965143)"><path fill="url(#5d7d4def46)" d="M 19.535156 63.527344 L 19.535156 311.523438 L 355.535156 311.523438 L 355.535156 63.527344 Z M 19.535156 63.527344 " fill-rule="nonzero"/></g></g></svg>